<?xml version="1.0" encoding="utf-8"?>
<!-- Generator: Adobe Illustrator 17.0.0, SVG Export Plug-In . SVG Version: 6.00 Build 0)  -->
<!DOCTYPE svg PUBLIC "-//W3C//DTD SVG 1.1//EN" "http://www.w3.org/Graphics/SVG/1.1/DTD/svg11.dtd">
<svg version="1.1" id="Layer_1" xmlns="http://www.w3.org/2000/svg" xmlns:xlink="http://www.w3.org/1999/xlink" x="0px" y="0px"
	 width="815px" height="374px" viewBox="0 0 815 374" enable-background="new 0 0 815 374" xml:space="preserve">
<defs>
  <style type="text/css">
    <![CDATA[
        @font-face {
        font-family: "UniversLTStd-BoldCn";
        src: url('../fonts/Univers 67 Condensed Bold.woff');
        }
        @font-face {
        font-family: "Univers-Condensed";
        src: url('../fonts/Univers 57 Condensed.woff');
        }
    ]]>
  </style>
</defs>
<polygon fill="#FFFFFF" points="61.8,270.5 707.7,374 815,0 1,0 0,168.4 "/>
<text transform="matrix(1 0 0 1 163 111)" fill="#757575" font-family="'Univers-Condensed'" font-size="24">With 4,200 masters and doctoral students in 36 </text>
<text transform="matrix(1 0 0 1 163 145)" fill="#757575" font-family="'Univers-Condensed'" font-size="24">academic programs, The Graduate Center is </text>
<text transform="matrix(1 0 0 1 163 179)" fill="#757575" font-family="'Univers-Condensed'" font-size="24">unique in its goal and mission to provide quality </text>
<text transform="matrix(1 0 0 1 163 213)"><tspan x="0" y="0" fill="#757575" font-family="'Univers-Condensed'" font-size="24">graduate education in the nation</tspan><tspan x="312" y="0" fill="#757575" font-family="'Univers-Condensed'" font-size="24" letter-spacing="-1">’</tspan><tspan x="315.6" y="0" fill="#757575" font-family="'Univers-Condensed'" font-size="24">s largest urban </tspan></text>
<text transform="matrix(1 0 0 1 163 247)" fill="#757575" font-family="'Univers-Condensed'" font-size="24">public university.</text>
<text transform="matrix(1 0 0 1 160.5 67)"><tspan x="0" y="0" fill="#656565" font-family="'UniversLTStd-BoldCn'" font-size="24">The Graduate Cente</tspan><tspan x="192" y="0" fill="#656565" font-family="'UniversLTStd-BoldCn'" font-size="24" letter-spacing="-1">r</tspan><tspan x="198.6" y="0" fill="#656565" font-family="'UniversLTStd-BoldCn'" font-size="24">, CUN</tspan><tspan x="253.2" y="0" fill="#656565" font-family="'UniversLTStd-BoldCn'" font-size="24" letter-spacing="-1">Y</tspan><tspan x="264.8" y="0" fill="#656565" font-family="'UniversLTStd-BoldCn'" font-size="24">:</tspan></text>
</svg>
