<?xml version="1.0" encoding="utf-8"?>
<!-- Generator: Adobe Illustrator 17.0.0, SVG Export Plug-In . SVG Version: 6.00 Build 0)  -->
<!DOCTYPE svg PUBLIC "-//W3C//DTD SVG 1.1//EN" "http://www.w3.org/Graphics/SVG/1.1/DTD/svg11.dtd">
<svg version="1.1" id="Layer_1" xmlns="http://www.w3.org/2000/svg" xmlns:xlink="http://www.w3.org/1999/xlink" x="0px" y="0px"
	 width="957px" height="234.1px" viewBox="0 0 957 234.1" enable-background="new 0 0 957 234.1" xml:space="preserve">
<defs>
  <style type="text/css">
	<![CDATA[
		@font-face {
		font-family: "UniversLTStd-BoldCn";
		src: url('../fonts/Univers 67 Condensed Bold.woff');
		}
		@font-face {
		font-family: "Univers-Condensed";
		src: url('../fonts/Univers 57 Condensed.woff');
		}
    ]]>
  </style>
</defs>
<g>
	<defs>
		<polygon id="SVGID_1_" points="957,234.1 0,234.1 0,89.3 133,21.4 240.2,40.5 284.4,0 383.8,20.6 464.1,0.9 510.4,25.2 
			603.5,18.2 715.3,33.3 775,11.9 905.1,126.5 		"/>
	</defs>
	<clipPath id="SVGID_2_">
		<use xlink:href="#SVGID_1_"  overflow="visible"/>
	</clipPath>
	<g clip-path="url(#SVGID_2_)">
		<defs>
			<rect id="SVGID_3_" y="-12052.9" width="1440" height="12288"/>
		</defs>
		<clipPath id="SVGID_4_">
			<use xlink:href="#SVGID_3_"  overflow="visible"/>
		</clipPath>
		<rect x="-5" y="-5" clip-path="url(#SVGID_4_)" fill="#FFFFFF" width="967" height="244.1"/>
	</g>
</g>
<text transform="matrix(1 0 0 1 113.3704 136.4766)" fill="#757575" font-family="'Univers-Condensed'" font-size="24">After they finish their degrees, students start their careers all over </text>
<text transform="matrix(1 0 0 1 113.3704 170.4766)" fill="#757575" font-family="'Univers-Condensed'" font-size="24">the world. Explore the role The Graduate Center takes in connecting </text>
<text transform="matrix(1 0 0 1 113.3704 204.4766)" fill="#757575" font-family="'Univers-Condensed'" font-size="24">people and knowledge throughout the world.</text>
<text transform="matrix(1 0 0 1 111.2033 91.4922)"><tspan x="0" y="0" fill="#40423E" font-family="'UniversLTStd-BoldCn'" font-size="24">People: Alumni Foster Change across the </tspan><tspan x="403.9" y="0" fill="#40423E" font-family="'UniversLTStd-BoldCn'" font-size="24">W</tspan><tspan x="424.7" y="0" fill="#40423E" font-family="'UniversLTStd-BoldCn'" font-size="24">orld </tspan></text>
</svg>
