<?xml version="1.0" encoding="utf-8"?>
<!-- Generator: Adobe Illustrator 17.0.0, SVG Export Plug-In . SVG Version: 6.00 Build 0)  -->
<!DOCTYPE svg PUBLIC "-//W3C//DTD SVG 1.1//EN" "http://www.w3.org/Graphics/SVG/1.1/DTD/svg11.dtd">
<svg version="1.1" id="Layer_1" xmlns="http://www.w3.org/2000/svg" xmlns:xlink="http://www.w3.org/1999/xlink" x="0px" y="0px"
	 width="532.5px" height="533.8px" viewBox="0 0 532.5 533.8" enable-background="new 0 0 532.5 533.8" xml:space="preserve">
<defs>
  <style type="text/css">
	<![CDATA[
		@font-face {
		font-family: "Univers-CondensedBold";
		src: url('../fonts/Univers 67 Condensed Bold.woff');
		}
		@font-face {
		font-family: "Univers-Condensed";
		src: url('../fonts/Univers 57 Condensed.woff');
		}
    ]]>
  </style>
</defs>
<g>
	<defs>
		<polyline id="SVGID_1_" points="533.1,533.8 0,533.8 83.5,194.6 532.5,0 		"/>
	</defs>
	<clipPath id="SVGID_2_">
		<use xlink:href="#SVGID_1_"  overflow="visible"/>
	</clipPath>
	<g clip-path="url(#SVGID_2_)">
		<defs>
			<rect id="SVGID_3_" x="-907.2" y="-10729.2" width="1440" height="12288"/>
		</defs>
		<clipPath id="SVGID_4_">
			<use xlink:href="#SVGID_3_"  overflow="visible"/>
		</clipPath>
		<rect x="-5" y="-5" clip-path="url(#SVGID_4_)" fill="#FFFFFF" width="543.8" height="543.8"/>
	</g>
</g>
<text transform="matrix(1 0 0 1 131.4991 325)" fill="#757575" font-family="'Univers-Condensed'" font-size="24">Students apply from nearly 100 </text>
<text transform="matrix(1 0 0 1 131.4991 359)" fill="#757575" font-family="'Univers-Condensed'" font-size="24">countries and every U.S. state </text>
<text transform="matrix(1 0 0 1 131.4991 393)" fill="#757575" font-family="'Univers-Condensed'" font-size="24">each year to study at The </text>
<text transform="matrix(1 0 0 1 131.4991 427)" fill="#757575" font-family="'Univers-Condensed'" font-size="24">Graduate Center </text>
<text transform="matrix(1 0 0 1 131.4991 252)"><tspan x="0" y="0" fill="#40423E" font-family="'UniversLTStd-BoldCn'" font-size="24">People: Attracting </tspan><tspan x="181.3" y="0" fill="#40423E" font-family="'UniversLTStd-BoldCn'" font-size="24" letter-spacing="-1">T</tspan><tspan x="191.6" y="0" fill="#40423E" font-family="'UniversLTStd-BoldCn'" font-size="24">alent </tspan></text>
<text transform="matrix(1 0 0 1 131.4991 281)" fill="#40423E" font-family="'UniversLTStd-BoldCn'" font-size="24">from around the Globe</text>
</svg>
