<?xml version="1.0" encoding="utf-8"?>
<!-- Generator: Adobe Illustrator 18.1.0, SVG Export Plug-In . SVG Version: 6.00 Build 0)  -->
<svg version="1.1" id="shape4" xmlns="http://www.w3.org/2000/svg" xmlns:xlink="http://www.w3.org/1999/xlink" x="0px" y="0px"
	 viewBox="0 0 461 390" enable-background="new 0 0 461 390" xml:space="preserve">
<defs>
  <style type="text/css">
	<![CDATA[
		@font-face {
		  font-family: "Univers-Condensed";
		  src: url('fonts/Univers 57 Condensed.woff');
		}
	]]>
  </style>
</defs>

	<path fill="#FFFFFF" d="M265.9,389.2h-71c-107,0-194.5-87.5-194.5-194.5v0C0.4,87.7,87.9,0.2,194.9,0.2l71,0
	c107,0,194.5,87.5,194.5,194.5v0C460.4,301.7,372.9,389.2,265.9,389.2z"/>
<path fill="none" d="M338,315.4H122c-39.2,0-71.2-25-71.2-55.5V138.5C50.9,108,82.9,83,122,83H338c39.2,0,71.2,25,71.2,55.5v121.4
	C409.1,290.5,377.1,315.4,338,315.4z"/>
<text transform="matrix(1 0 0 1 146.0276 103.1185)"><tspan class="svg-body" x="0" y="0" fill="#515151" font-family="'Univers-Condensed'" font-size="28">Since 1964, the </tspan><tspan class="svg-body" x="-84.8" y="33.6" fill="#515151" font-family="'Univers-Condensed'" font-size="28">Graduate Center has awarded </tspan><tspan class="svg-body" x="-76.9" y="67.2" fill="#515151" font-family="'Univers-Condensed'" font-size="28">12,641 degrees. At 300 pages </tspan><tspan class="svg-body" x="-73.1" y="100.8" fill="#515151" font-family="'Univers-Condensed'" font-size="28">each, stacked vertically, the </tspan><tspan class="svg-body" x="-82.4" y="134.4" fill="#515151" font-family="'Univers-Condensed'" font-size="28">dissertations would reach the </tspan><tspan class="svg-body" x="-43.6" y="168" fill="#515151" font-family="'Univers-Condensed'" font-size="28">top of the Empire State </tspan><tspan class="svg-body" x="35" y="201.6" fill="#515151" font-family="'Univers-Condensed'" font-size="28">Building.</tspan></text>
</svg>
