<?xml version="1.0" encoding="utf-8"?>
<!-- Generator: Adobe Illustrator 18.1.0, SVG Export Plug-In . SVG Version: 6.00 Build 0)  -->
<svg version="1.1" id="shape9" xmlns="http://www.w3.org/2000/svg" xmlns:xlink="http://www.w3.org/1999/xlink" x="0px" y="0px"
	 viewBox="0 0 463 606" enable-background="new 0 0 463 606" xml:space="preserve">
<defs>
  <style type="text/css">
	<![CDATA[
		@font-face {
		  font-family: "Univers-Condensed";
		  src: url('../fonts/Univers 57 Condensed.woff');
		}
    ]]>
  </style>
</defs>

	<polygon fill="#FFFFFF" points="0,0 179,22 406,163 413,257 458,299 463,362 425,457 432,530 417,573 418,606 0,606 "/>
<polygon fill="none" points="48.6,162.4 247.9,161 353.7,161 352.6,260.8 401.6,297.8 401.6,361.8 381.6,422.8 377.6,511.8 
	365.6,544.8 48.6,544.8 "/>
<text transform="matrix(1 0 0 1 48.6089 181.1318)"><tspan x="0" y="0" fill="#515251" font-family="'Univers-Condensed'" font-size="28">The single greatest </tspan><tspan x="0" y="33.6" fill="#515251" font-family="'Univers-Condensed'" font-size="28">strength of The Graduate </tspan><tspan x="0" y="67.2" fill="#515251" font-family="'Univers-Condensed'" font-size="28">Center, CUNY is its people. </tspan><tspan x="0" y="100.8" fill="#515251" font-family="'Univers-Condensed'" font-size="28">The Graduate Center&apos;s </tspan><tspan x="0" y="134.4" fill="#515251" font-family="'Univers-Condensed'" font-size="28">students and faculty bring a </tspan><tspan x="0" y="168" fill="#515251" font-family="'Univers-Condensed'" font-size="28">whole world of experiences </tspan><tspan x="0" y="201.6" fill="#515251" font-family="'Univers-Condensed'" font-size="28">with them when they arrive to </tspan><tspan x="0" y="235.2" fill="#515251" font-family="'Univers-Condensed'" font-size="28">study and bring their </tspan><tspan x="0" y="268.8" fill="#515251" font-family="'Univers-Condensed'" font-size="28">Graduate Center education </tspan><tspan x="0" y="302.4" fill="#515251" font-family="'Univers-Condensed'" font-size="28">with them to their careers </tspan><tspan x="0" y="336" fill="#515251" font-family="'Univers-Condensed'" font-size="28">afterwards.</tspan></text>
</svg>
