<?xml version="1.0" encoding="utf-8"?>
<!-- Generator: Adobe Illustrator 17.0.0, SVG Export Plug-In . SVG Version: 6.00 Build 0)  -->
<!DOCTYPE svg PUBLIC "-//W3C//DTD SVG 1.1//EN" "http://www.w3.org/Graphics/SVG/1.1/DTD/svg11.dtd">
<svg version="1.1" id="Layer_1" xmlns="http://www.w3.org/2000/svg" xmlns:xlink="http://www.w3.org/1999/xlink" x="0px" y="0px"
	 width="718.8px" height="277.9px" viewBox="0 0 718.8 277.9" enable-background="new 0 0 718.8 277.9" xml:space="preserve">
<defs>
  <style type="text/css">
	<![CDATA[
		@font-face {
		font-family: "UniversLTStd-BoldCn";
		src: url('../fonts/Univers 67 Condensed Bold.woff');
		}
		@font-face {
		font-family: "Univers-Condensed";
		src: url('../fonts/Univers 57 Condensed.woff');
		}
    ]]>
  </style>
</defs>
<g>
	<defs>
		<polygon id="SVGID_1_" points="0,0 143.3,180.3 212.3,262.7 718.8,277.9 719,0 		"/>
	</defs>
	<clipPath id="SVGID_2_">
		<use xlink:href="#SVGID_1_"  overflow="visible"/>
	</clipPath>
	<g clip-path="url(#SVGID_2_)">
		<defs>
			<rect id="SVGID_3_" x="-391" y="-6142.1" width="1440" height="12288"/>
		</defs>
		<clipPath id="SVGID_4_">
			<use xlink:href="#SVGID_3_"  overflow="visible"/>
		</clipPath>
		<rect x="-5" y="-7.1" clip-path="url(#SVGID_4_)" fill="#FFFFFF" width="730" height="290"/>
	</g>
</g>
<g>
	<text transform="matrix(1 0 0 1 222.2048 97.5)" fill="#757575" font-family="'Univers-Condensed'" font-size="24">Students from The Graduate Center teach </text>
	<text transform="matrix(1 0 0 1 222.2048 131.5)" fill="#757575" font-family="'Univers-Condensed'" font-size="24">approximately 10% of all CUNY undergraduate </text>
	<text transform="matrix(1 0 0 1 222.2048 165.5)" fill="#757575" font-family="'Univers-Condensed'" font-size="24">courses, helping to create affordable education </text>
	<text transform="matrix(1 0 0 1 222.2048 199.5)"><tspan x="0" y="0" fill="#757575" font-family="'Univers-Condensed'" font-size="24">opportunities for all New </tspan><tspan x="242.6" y="0" fill="#757575" font-family="'Univers-Condensed'" font-size="24" letter-spacing="-1">Y</tspan><tspan x="253" y="0" fill="#757575" font-family="'Univers-Condensed'" font-size="24">orkers.</tspan></text>
	<text transform="matrix(1 0 0 1 225.3333 55.5)"><tspan x="0" y="0" fill="#4BAB48" font-family="'UniversLTStd-BoldCn'" font-size="24" letter-spacing="-1">T</tspan><tspan x="10.2" y="0" fill="#4BAB48" font-family="'UniversLTStd-BoldCn'" font-size="24">eaching</tspan></text>
</g>
</svg>
